<mxfile host="app.diagrams.net" agent="Mozilla/5.0 (Windows NT 10.0; Win64; x64) AppleWebKit/537.36 (KHTML, like Gecko) Chrome/136.0.0.0 Safari/537.36 Edg/136.0.0.0" version="27.1.1">
  <diagram name="Page-1" id="xSIlCWUQG66eG-92K4HY">
    <mxGraphModel>
      <root>
        <mxCell id="0" />
        <mxCell id="1" parent="0" />
        <mxCell id="2" value="Clientes" style="whiteSpace=wrap;strokeWidth=2;" vertex="1" parent="1">
          <mxGeometry x="347" y="8" width="118" height="54" as="geometry" />
        </mxCell>
        <mxCell id="3" value="Gestión de Ventas" style="whiteSpace=wrap;strokeWidth=2;" vertex="1" parent="1">
          <mxGeometry x="311" y="170" width="189" height="54" as="geometry" />
        </mxCell>
        <mxCell id="4" value="Proveedores" style="whiteSpace=wrap;strokeWidth=2;" vertex="1" parent="1">
          <mxGeometry x="128" y="314" width="147" height="54" as="geometry" />
        </mxCell>
        <mxCell id="5" value="Gestión de Proveedores" style="whiteSpace=wrap;strokeWidth=2;" vertex="1" parent="1">
          <mxGeometry x="8" y="440" width="229" height="54" as="geometry" />
        </mxCell>
        <mxCell id="6" value="Arrendador" style="whiteSpace=wrap;strokeWidth=2;" vertex="1" parent="1">
          <mxGeometry x="542" y="566" width="140" height="54" as="geometry" />
        </mxCell>
        <mxCell id="7" value="Gestión Administrativa" style="whiteSpace=wrap;strokeWidth=2;" vertex="1" parent="1">
          <mxGeometry x="903" y="440" width="222" height="54" as="geometry" />
        </mxCell>
        <mxCell id="8" value="Municipio" style="whiteSpace=wrap;strokeWidth=2;" vertex="1" parent="1">
          <mxGeometry x="818" y="566" width="128" height="54" as="geometry" />
        </mxCell>
        <mxCell id="9" value="Bancos" style="whiteSpace=wrap;strokeWidth=2;" vertex="1" parent="1">
          <mxGeometry x="1212" y="566" width="109" height="54" as="geometry" />
        </mxCell>
        <mxCell id="10" value="Base de Datos de Clientes" style="whiteSpace=wrap;strokeWidth=2;" vertex="1" parent="1">
          <mxGeometry x="377" y="314" width="245" height="54" as="geometry" />
        </mxCell>
        <mxCell id="11" value="Registro Financiero" style="whiteSpace=wrap;strokeWidth=2;" vertex="1" parent="1">
          <mxGeometry x="727" y="314" width="197" height="54" as="geometry" />
        </mxCell>
        <mxCell id="12" value="Gestión de Inventario" style="whiteSpace=wrap;strokeWidth=2;" vertex="1" parent="1">
          <mxGeometry x="679" y="170" width="214" height="54" as="geometry" />
        </mxCell>
        <mxCell id="13" value="Inventario" style="whiteSpace=wrap;strokeWidth=2;" vertex="1" parent="1">
          <mxGeometry x="1032" y="314" width="133" height="54" as="geometry" />
        </mxCell>
        <mxCell id="14" value="Compras a Proveedores" style="whiteSpace=wrap;strokeWidth=2;" vertex="1" parent="1">
          <mxGeometry x="673" y="8" width="227" height="54" as="geometry" />
        </mxCell>
        <mxCell id="15" value="Permisos" style="whiteSpace=wrap;strokeWidth=2;" vertex="1" parent="1">
          <mxGeometry x="1215" y="314" width="122" height="54" as="geometry" />
        </mxCell>
        <mxCell id="16" value="Solicitudes de productos/pedidos personalizados" style="curved=1;startArrow=none;endArrow=block;exitX=0.31;exitY=1;entryX=0.38;entryY=-0.01;" edge="1" parent="1" source="2" target="3">
          <mxGeometry relative="1" as="geometry">
            <Array as="points">
              <mxPoint x="338" y="116" />
            </Array>
          </mxGeometry>
        </mxCell>
        <mxCell id="17" value="Factura" style="curved=1;startArrow=none;endArrow=block;exitX=0.79;exitY=-0.01;entryX=0.96;entryY=1;" edge="1" parent="1" source="3" target="2">
          <mxGeometry relative="1" as="geometry">
            <Array as="points">
              <mxPoint x="570" y="116" />
            </Array>
          </mxGeometry>
        </mxCell>
        <mxCell id="18" value="Productos" style="curved=1;startArrow=none;endArrow=block;exitX=0.94;exitY=-0.01;entryX=1;entryY=0.85;" edge="1" parent="1" source="3" target="2">
          <mxGeometry relative="1" as="geometry">
            <Array as="points">
              <mxPoint x="656" y="116" />
            </Array>
          </mxGeometry>
        </mxCell>
        <mxCell id="19" value="Promociones" style="curved=1;startArrow=none;endArrow=block;exitX=0.69;exitY=1;entryX=0.62;entryY=-0.01;" edge="1" parent="1" source="2" target="3">
          <mxGeometry relative="1" as="geometry">
            <Array as="points">
              <mxPoint x="474" y="116" />
            </Array>
          </mxGeometry>
        </mxCell>
        <mxCell id="20" value="Proformas" style="curved=1;startArrow=none;endArrow=block;exitX=0.14;exitY=0.99;entryX=0.42;entryY=0;" edge="1" parent="1" source="4" target="5">
          <mxGeometry relative="1" as="geometry">
            <Array as="points">
              <mxPoint x="79" y="404" />
            </Array>
          </mxGeometry>
        </mxCell>
        <mxCell id="21" value="Pedidos" style="curved=1;startArrow=none;endArrow=block;exitX=0.58;exitY=0;entryX=0.4;entryY=0.99;" edge="1" parent="1" source="5" target="4">
          <mxGeometry relative="1" as="geometry">
            <Array as="points">
              <mxPoint x="166" y="404" />
            </Array>
          </mxGeometry>
        </mxCell>
        <mxCell id="22" value="Pagos" style="curved=1;startArrow=none;endArrow=block;exitX=1;exitY=0.11;entryX=1;entryY=0.82;" edge="1" parent="1" source="5" target="4">
          <mxGeometry relative="1" as="geometry">
            <Array as="points">
              <mxPoint x="464" y="404" />
            </Array>
          </mxGeometry>
        </mxCell>
        <mxCell id="23" value="Renta" style="curved=1;startArrow=none;endArrow=block;exitX=0.5;exitY=0.01;entryX=0;entryY=0.82;" edge="1" parent="1" source="6" target="7">
          <mxGeometry relative="1" as="geometry">
            <Array as="points">
              <mxPoint x="612" y="530" />
            </Array>
          </mxGeometry>
        </mxCell>
        <mxCell id="24" value="Pago de renta" style="curved=1;startArrow=none;endArrow=block;exitX=0;exitY=0.76;entryX=0.21;entryY=0.01;" edge="1" parent="1" source="7" target="6">
          <mxGeometry relative="1" as="geometry">
            <Array as="points">
              <mxPoint x="518" y="530" />
            </Array>
          </mxGeometry>
        </mxCell>
        <mxCell id="25" value="Aprobaciones" style="curved=1;startArrow=none;endArrow=block;exitX=0.5;exitY=0.01;entryX=0.25;entryY=1;" edge="1" parent="1" source="8" target="7">
          <mxGeometry relative="1" as="geometry">
            <Array as="points">
              <mxPoint x="882" y="530" />
            </Array>
          </mxGeometry>
        </mxCell>
        <mxCell id="26" value="Solicitud de permisos" style="curved=1;startArrow=none;endArrow=block;exitX=0;exitY=0.96;entryX=0;entryY=0.01;" edge="1" parent="1" source="7" target="8">
          <mxGeometry relative="1" as="geometry">
            <Array as="points">
              <mxPoint x="733" y="530" />
            </Array>
          </mxGeometry>
        </mxCell>
        <mxCell id="27" value="Transacciones" style="curved=1;startArrow=none;endArrow=block;exitX=0.79;exitY=0.01;entryX=1;entryY=0.9;" edge="1" parent="1" source="9" target="7">
          <mxGeometry relative="1" as="geometry">
            <Array as="points">
              <mxPoint x="1339" y="530" />
            </Array>
          </mxGeometry>
        </mxCell>
        <mxCell id="28" value="Pagos a proveedores" style="curved=1;startArrow=none;endArrow=block;exitX=0.52;exitY=1;entryX=0;entryY=0.24;" edge="1" parent="1" source="7" target="9">
          <mxGeometry relative="1" as="geometry">
            <Array as="points">
              <mxPoint x="1027" y="530" />
            </Array>
          </mxGeometry>
        </mxCell>
        <mxCell id="29" value="Depósitos de ventas" style="curved=1;startArrow=none;endArrow=block;exitX=0.85;exitY=1;entryX=0.22;entryY=0.01;" edge="1" parent="1" source="7" target="9">
          <mxGeometry relative="1" as="geometry">
            <Array as="points">
              <mxPoint x="1195" y="530" />
            </Array>
          </mxGeometry>
        </mxCell>
        <mxCell id="30" value="Registro de pedidos" style="curved=1;startArrow=none;endArrow=block;exitX=0.5;exitY=0.99;entryX=0.36;entryY=-0.01;" edge="1" parent="1" source="3" target="10">
          <mxGeometry relative="1" as="geometry">
            <Array as="points">
              <mxPoint x="407" y="269" />
            </Array>
          </mxGeometry>
        </mxCell>
        <mxCell id="31" value="Generación de facturas" style="curved=1;startArrow=none;endArrow=block;exitX=1;exitY=0.79;entryX=0.5;entryY=-0.01;" edge="1" parent="1" source="3" target="11">
          <mxGeometry relative="1" as="geometry">
            <Array as="points">
              <mxPoint x="826" y="269" />
            </Array>
          </mxGeometry>
        </mxCell>
        <mxCell id="32" value="Actualización de existencias" style="curved=1;startArrow=none;endArrow=block;exitX=0.93;exitY=0.99;entryX=0.31;entryY=-0.01;" edge="1" parent="1" source="12" target="13">
          <mxGeometry relative="1" as="geometry">
            <Array as="points">
              <mxPoint x="1030" y="269" />
            </Array>
          </mxGeometry>
        </mxCell>
        <mxCell id="33" value="Verificación de disponibilidad" style="curved=1;startArrow=none;endArrow=block;exitX=1;exitY=0.87;entryX=0.7;entryY=-0.01;" edge="1" parent="1" source="12" target="13">
          <mxGeometry relative="1" as="geometry">
            <Array as="points">
              <mxPoint x="1167" y="269" />
            </Array>
          </mxGeometry>
        </mxCell>
        <mxCell id="34" value="Registra compras" style="curved=1;startArrow=none;endArrow=block;exitX=0.5;exitY=1;entryX=0.5;entryY=-0.01;" edge="1" parent="1" source="14" target="12">
          <mxGeometry relative="1" as="geometry">
            <Array as="points" />
          </mxGeometry>
        </mxCell>
        <mxCell id="35" value="Insumos entregados" style="curved=1;startArrow=none;endArrow=block;exitX=0;exitY=0.74;entryX=0.5;entryY=-0.01;" edge="1" parent="1" source="12" target="4">
          <mxGeometry relative="1" as="geometry">
            <Array as="points">
              <mxPoint x="201" y="269" />
            </Array>
          </mxGeometry>
        </mxCell>
        <mxCell id="36" value="Información de pedidos y contactos" style="curved=1;startArrow=none;endArrow=block;exitX=0.64;exitY=-0.01;entryX=0.87;entryY=0.99;" edge="1" parent="1" source="10" target="3">
          <mxGeometry relative="1" as="geometry">
            <Array as="points">
              <mxPoint x="591" y="269" />
            </Array>
          </mxGeometry>
        </mxCell>
        <mxCell id="37" value="Existencias de productos" style="curved=1;startArrow=none;endArrow=block;exitX=1;exitY=0.12;entryX=1;entryY=0.75;" edge="1" parent="1" source="13" target="12">
          <mxGeometry relative="1" as="geometry">
            <Array as="points">
              <mxPoint x="1334" y="269" />
            </Array>
          </mxGeometry>
        </mxCell>
        <mxCell id="38" value="Facturas y pagos" style="curved=1;startArrow=none;endArrow=block;exitX=0.5;exitY=0.99;entryX=0.14;entryY=0;" edge="1" parent="1" source="11" target="7">
          <mxGeometry relative="1" as="geometry">
            <Array as="points">
              <mxPoint x="826" y="404" />
            </Array>
          </mxGeometry>
        </mxCell>
        <mxCell id="39" value="Documentos municipales" style="curved=1;startArrow=none;endArrow=block;exitX=0.5;exitY=0.99;entryX=1;entryY=0;" edge="1" parent="1" source="15" target="7">
          <mxGeometry relative="1" as="geometry">
            <Array as="points">
              <mxPoint x="1276" y="404" />
            </Array>
          </mxGeometry>
        </mxCell>
      </root>
    </mxGraphModel>
  </diagram>
</mxfile>
